<svg id="Layer_1" data-name="Layer 1" xmlns="http://www.w3.org/2000/svg" xmlns:xlink="http://www.w3.org/1999/xlink" viewBox="0 0 1600 653"><defs><style>.cls-1{fill:#a0def9;}.cls-2{fill:#42a842;}.cls-3{fill:#7e8b96;}.cls-4{fill:#ebb34c;}.cls-5{fill:#e9a52d;}.cls-6{fill:#eec06b;}.cls-7{fill:#9ec8fc;}.cls-8{fill:#80b6fc;}.cls-9{fill:#62a4fb;}.cls-10{fill:#fff;}.cls-11{fill:#909ba6;}.cls-12{fill:#b9c3cd;}.cls-13{fill:#dce6eb;}.cls-14{fill:#ddebfd;}.cls-15{fill:#ffa600;}.cls-16{fill:#ffdb2d;}.cls-17{fill:#ffca00;}.cls-18{fill:url(#linear-gradient);}</style><linearGradient id="linear-gradient" x1="800" y1="653" x2="800" y2="307" gradientUnits="userSpaceOnUse"><stop offset="0"/><stop offset="0.21" stop-color="#040201"/><stop offset="0.39" stop-color="#0e0904"/><stop offset="0.56" stop-color="#20150a"/><stop offset="0.73" stop-color="#3a2612"/><stop offset="0.89" stop-color="#5a3b1c"/><stop offset="1" stop-color="#754c24"/></linearGradient></defs><title>header</title><rect class="cls-1" width="1600" height="390"/><path class="cls-2" d="M0,242.64c46.76-23.74,184.13-87.07,373-86.55,32.79.09,122.7.93,222,29.91,81.3,23.73,85.58,42,143,61.73,153,52.52,377.46,10.2,503-31.82,93.79-31.39,158.79-71.47,268-66.18a414.84,414.84,0,0,1,91,14.64V389H0Z"/><path class="cls-3" d="M410.44,259.93h15.33v30.15H410.44Z"/><path class="cls-4" d="M447.51,262.05H389.76a5.76,5.76,0,0,1-5.76-5.77v-5.15l35.12-4.8,34.15,4.8v5.15A5.76,5.76,0,0,1,447.51,262.05Z"/><path class="cls-5" d="M445.87,250.94v5.25a5.9,5.9,0,0,1-5.94,5.86h7.58a5.76,5.76,0,0,0,5.76-5.77v-5.34Z"/><path class="cls-6" d="M477.12,307h-117a1,1,0,0,1-1-1v-9.17A8.86,8.86,0,0,1,368,288H469.27a8.86,8.86,0,0,1,8.86,8.86V306A1,1,0,0,1,477.12,307Z"/><path class="cls-4" d="M478.13,296.82a8.86,8.86,0,0,0-8.86-8.86H461.6a9,9,0,0,1,9.13,9V306a1,1,0,0,1-1.05,1h7.44a1,1,0,0,0,1-1Z"/><path class="cls-7" d="M470.2,250.94H367a5.11,5.11,0,0,1-4.77-6.91L380,197.13a5.1,5.1,0,0,1,4.78-3.3h67.73a5.11,5.11,0,0,1,4.78,3.3L475,244a5.1,5.1,0,0,1-4.78,6.91Z"/><path class="cls-8" d="M474.94,244l-17.73-46.9a5.1,5.1,0,0,0-4.78-3.3h-7.19a5.12,5.12,0,0,1,4.78,3.3L467.74,244a5.11,5.11,0,0,1-4.78,6.91h7.2a5.11,5.11,0,0,0,4.78-6.91Z"/><path class="cls-9" d="M441.27,234.55h30l-1.4-3.7H440.69l-3.5-16.93h26.27l-1.4-3.7h-25.4l-3.39-16.39h-3.72l3.39,16.39H404.28l3.4-16.39H404l-3.4,16.39H375.17l-1.4,3.7H400l-3.51,16.93H367.32l-1.4,3.7h30l-3.4,16.39h3.64l3.4-16.39h38L441,250.94h3.64Zm-40.84-3.7,3.51-16.93h29.35l3.5,16.93Z"/><path class="cls-3" d="M558.31,259.93h15.33v30.15H558.31Z"/><path class="cls-4" d="M595.38,262.05H537.63a5.77,5.77,0,0,1-5.77-5.77v-5.15l35.13-4.8,34.15,4.8v5.15A5.76,5.76,0,0,1,595.38,262.05Z"/><path class="cls-5" d="M593.74,250.94v5.25a5.9,5.9,0,0,1-5.94,5.86h7.58a5.76,5.76,0,0,0,5.76-5.77v-5.34Z"/><path class="cls-6" d="M625,307H508a1,1,0,0,1-1-1v-9.17a8.86,8.86,0,0,1,8.86-8.86H617.14a8.86,8.86,0,0,1,8.86,8.86V306A1,1,0,0,1,625,307Z"/><path class="cls-4" d="M626,296.82a8.86,8.86,0,0,0-8.86-8.86h-7.67a9,9,0,0,1,9.13,9V306a1,1,0,0,1-1.05,1H625a1,1,0,0,0,1-1Z"/><path class="cls-7" d="M618.07,250.94H514.88a5.11,5.11,0,0,1-4.77-6.91l17.73-46.9a5.1,5.1,0,0,1,4.78-3.3h67.73a5.11,5.11,0,0,1,4.78,3.3L622.85,244a5.1,5.1,0,0,1-4.78,6.91Z"/><path class="cls-8" d="M622.81,244l-17.73-46.9a5.1,5.1,0,0,0-4.78-3.3h-7.19a5.12,5.12,0,0,1,4.78,3.3L615.61,244a5.11,5.11,0,0,1-4.78,6.91H618a5.11,5.11,0,0,0,4.78-6.91Z"/><path class="cls-9" d="M589.14,234.55h30l-1.4-3.7H588.56l-3.5-16.93h26.27l-1.4-3.7h-25.4l-3.39-16.39h-3.72l3.39,16.39H552.15l3.4-16.39h-3.72l-3.4,16.39H523l-1.4,3.7h26.27l-3.51,16.93H515.19l-1.4,3.7h30l-3.4,16.39h3.64l3.4-16.39h38l3.39,16.39h3.64Zm-40.84-3.7,3.51-16.93h29.35l3.5,16.93Z"/><path class="cls-3" d="M267.52,259.11h15.34v30.14H267.52Z"/><path class="cls-4" d="M304.6,261.22H246.85a5.76,5.76,0,0,1-5.77-5.76V250.3l35.13-4.79,34.15,4.79v5.16A5.76,5.76,0,0,1,304.6,261.22Z"/><path class="cls-5" d="M303,250.12v5.24a5.9,5.9,0,0,1-5.94,5.86h7.58a5.76,5.76,0,0,0,5.76-5.76v-5.34Z"/><path class="cls-6" d="M334.2,306.17h-117a1,1,0,0,1-1-1V296a8.85,8.85,0,0,1,8.86-8.86H326.36a8.86,8.86,0,0,1,8.86,8.86v9.16A1,1,0,0,1,334.2,306.17Z"/><path class="cls-4" d="M335.22,296a8.86,8.86,0,0,0-8.86-8.86h-7.67a9,9,0,0,1,9.12,8.94v9.07a1,1,0,0,1-1,1h7.43a1,1,0,0,0,1-1Z"/><path class="cls-7" d="M327.29,250.12H224.1a5.1,5.1,0,0,1-4.77-6.91l17.72-46.91a5.13,5.13,0,0,1,4.78-3.3h67.74a5.13,5.13,0,0,1,4.78,3.3l17.72,46.9a5.12,5.12,0,0,1-4.78,6.92Z"/><path class="cls-8" d="M332,243.2,314.3,196.3a5.12,5.12,0,0,0-4.78-3.3h-7.2a5.11,5.11,0,0,1,4.78,3.3l17.73,46.9a5.12,5.12,0,0,1-4.78,6.92h7.19A5.11,5.11,0,0,0,332,243.2Z"/><path class="cls-9" d="M298.35,233.72h30L327,230H297.78l-3.51-16.92h26.28l-1.4-3.71h-25.4L290.35,193h-3.72l3.4,16.39H261.37l3.4-16.39h-3.72l-3.4,16.39h-25.4l-1.4,3.71h26.28L253.62,230H224.41l-1.4,3.7h30l-3.4,16.4h3.64l3.39-16.4h38l3.39,16.4h3.64ZM257.52,230,261,213.1h29.36l3.5,16.92Z"/><path class="cls-10" d="M358.19,47.39a32.31,32.31,0,0,0-3.68.22A25.63,25.63,0,0,0,321.69,30.8a33.34,33.34,0,0,0-62.62,22.05A28.24,28.24,0,0,0,263.21,109h94.37c16.23,0,30.15-12.32,31.33-28.5A30.81,30.81,0,0,0,358.19,47.39Zm25.6,32.84c-1,13.1-13,23.77-26.13,23.77H263.21a23.09,23.09,0,0,1-.69-46.17,2.53,2.53,0,0,0,2-1.11,2.57,2.57,0,0,0,.31-2.31,28.21,28.21,0,0,1,53-19.26,2.57,2.57,0,0,0,3.48,1.44,20.37,20.37,0,0,1,8.58-1.9,20.58,20.58,0,0,1,20.13,16.47,2.56,2.56,0,0,0,3,2,25.67,25.67,0,0,1,30.69,27.06Z"/><path class="cls-10" d="M383.79,80.23c-1,13.1-13,23.77-26.13,23.77H263.21a23.09,23.09,0,0,1-.69-46.17,2.53,2.53,0,0,0,2-1.11,2.57,2.57,0,0,0,.31-2.31,28.21,28.21,0,0,1,53-19.26,2.57,2.57,0,0,0,3.48,1.44,20.37,20.37,0,0,1,8.58-1.9,20.58,20.58,0,0,1,20.13,16.47,2.56,2.56,0,0,0,3,2,25.67,25.67,0,0,1,30.69,27.06Z"/><path class="cls-10" d="M177.37,120.74a39.67,39.67,0,0,0-4.5.27,31.29,31.29,0,0,0-40.09-20.53,40.72,40.72,0,0,0-76.49,26.93A34.49,34.49,0,0,0,61.35,196H176.62c19.83,0,36.83-15.05,38.27-34.81A37.64,37.64,0,0,0,177.37,120.74Zm31.27,40.12c-1.16,16-15.88,29-31.92,29H61.35a28.2,28.2,0,0,1-.85-56.4A3.07,3.07,0,0,0,63,132.14a3.12,3.12,0,0,0,.38-2.82,34.46,34.46,0,0,1,64.77-23.53,3.14,3.14,0,0,0,4.25,1.76,24.83,24.83,0,0,1,10.48-2.32,25.14,25.14,0,0,1,24.59,20.12,3.13,3.13,0,0,0,3.69,2.45,31.37,31.37,0,0,1,37.49,33.06Z"/><path class="cls-10" d="M208.64,160.86c-1.16,16-15.88,29-31.92,29H61.35a28.2,28.2,0,0,1-.85-56.4A3.07,3.07,0,0,0,63,132.14a3.12,3.12,0,0,0,.38-2.82,34.46,34.46,0,0,1,64.77-23.53,3.14,3.14,0,0,0,4.25,1.76,24.83,24.83,0,0,1,10.48-2.32,25.14,25.14,0,0,1,24.59,20.12,3.13,3.13,0,0,0,3.69,2.45,31.37,31.37,0,0,1,37.49,33.06Z"/><path class="cls-10" d="M296.37,54.76a28.1,28.1,0,0,0-3.3.2,23,23,0,0,0-29.42-15.08A29.89,29.89,0,0,0,207.5,59.65,25.32,25.32,0,0,0,211.21,110h84.62c14.55,0,27-11,28.09-25.55A27.63,27.63,0,0,0,296.37,54.76Zm23,29.44c-.85,11.75-11.66,21.32-23.43,21.32H211.21a20.7,20.7,0,0,1-.62-41.4,2.27,2.27,0,0,0,1.83-1,2.31,2.31,0,0,0,.28-2.07,25.29,25.29,0,0,1,47.54-17.27,2.3,2.3,0,0,0,3.12,1.29,18.27,18.27,0,0,1,7.69-1.7A18.46,18.46,0,0,1,289.1,58.14a2.3,2.3,0,0,0,2.71,1.8,23.28,23.28,0,0,1,4.56-.46A23,23,0,0,1,319.33,84.2Z"/><path class="cls-10" d="M319.33,84.2c-.85,11.75-11.66,21.32-23.43,21.32H211.21a20.7,20.7,0,0,1-.62-41.4,2.27,2.27,0,0,0,1.83-1,2.31,2.31,0,0,0,.28-2.07,25.29,25.29,0,0,1,47.54-17.27,2.3,2.3,0,0,0,3.12,1.29,18.27,18.27,0,0,1,7.69-1.7A18.46,18.46,0,0,1,289.1,58.14a2.3,2.3,0,0,0,2.71,1.8,23.28,23.28,0,0,1,4.56-.46A23,23,0,0,1,319.33,84.2Z"/><path class="cls-11" d="M1206.49,263H1192a4.44,4.44,0,0,1-4.42-4.78l5.56-71.84h12.19l5.56,71.84A4.44,4.44,0,0,1,1206.49,263Z"/><path class="cls-3" d="M1210.93,258.22l-5.56-71.84h-9.66l5.56,71.84a4.44,4.44,0,0,1-4.43,4.78h9.67A4.44,4.44,0,0,0,1210.93,258.22Z"/><path class="cls-12" d="M1199.49,117.52a5.16,5.16,0,0,0-5.16,5.16v56h11.05l2.41-11.17a75.06,75.06,0,0,0-.23-32.78l-3-13.17a5.17,5.17,0,0,0-5-4Z"/><path class="cls-12" d="M1256.5,211.11a5.17,5.17,0,0,0-2.29-6.94l-50-25.17-5,9.87,8.89,7.18a75.14,75.14,0,0,0,29.38,14.54l13.13,3.21a5.17,5.17,0,0,0,5.84-2.69Z"/><path class="cls-12" d="M1142,211.11a5.18,5.18,0,0,1,2.29-6.94l50-25.17,5,9.87-8.9,7.18A75.16,75.16,0,0,1,1161,210.59l-13.14,3.21A5.18,5.18,0,0,1,1142,211.11Z"/><circle class="cls-13" cx="1198.99" cy="181.85" r="9.95"/><path class="cls-14" d="M1134.79,154.65h-37.31a.69.69,0,0,1-.49-.19c-2-2-.64-4.45,1.32-4.45h34.8a1.11,1.11,0,0,0,.78-.31c3.7-3.58.8-8-2.82-7.44a.75.75,0,0,1-.6-.16c-2.16-2-.75-4.54,1.24-4.54,7.21,0,12.37,9,4.84,16.37A2.52,2.52,0,0,1,1134.79,154.65Z"/><path class="cls-14" d="M1165.11,170.13h-68.58a.72.72,0,0,1-.48-.18c-2.13-2-.68-4.46,1.38-4.46h65.89a1.1,1.1,0,0,0,.77-.3c3.89-3.59.84-8.05-3-7.45a.7.7,0,0,1-.58-.15c-2.28-2-.81-4.55,1.27-4.55,7.55,0,12.94,9,5,16.39A2.55,2.55,0,0,1,1165.11,170.13Z"/><path class="cls-11" d="M1297.35,200h-12.5a3.83,3.83,0,0,1-3.82-4.13l4.8-62.09h10.54l4.81,62.09A3.84,3.84,0,0,1,1297.35,200Z"/><path class="cls-3" d="M1301.19,195.87l-4.8-62.09H1288l4.8,62.09A3.83,3.83,0,0,1,1289,200h8.35A3.83,3.83,0,0,0,1301.19,195.87Z"/><path class="cls-12" d="M1291.3,74.27a4.46,4.46,0,0,0-4.46,4.46V127.1h9.56l2.08-9.66a64.94,64.94,0,0,0-.2-28.33l-2.63-11.38a4.46,4.46,0,0,0-4.35-3.46Z"/><path class="cls-12" d="M1340.57,155.15a4.46,4.46,0,0,0-2-6l-43.2-21.76-4.3,8.54,7.69,6.2a65,65,0,0,0,25.39,12.56l11.35,2.78a4.45,4.45,0,0,0,5-2.33Z"/><path class="cls-12" d="M1241.63,155.15a4.46,4.46,0,0,1,2-6l43.19-21.76,4.3,8.54-7.68,6.2A65.09,65.09,0,0,1,1258,154.7l-11.35,2.78A4.47,4.47,0,0,1,1241.63,155.15Z"/><circle class="cls-13" cx="1290.88" cy="129.86" r="8.6"/><path class="cls-14" d="M1235.39,106.36h-32.25a.61.61,0,0,1-.42-.17c-1.76-1.74-.55-3.84,1.14-3.84h30.07a1,1,0,0,0,.68-.27c3.2-3.09.69-6.93-2.44-6.43a.62.62,0,0,1-.52-.14c-1.86-1.75-.65-3.92,1.07-3.92,6.24,0,10.7,7.78,4.19,14.14A2.16,2.16,0,0,1,1235.39,106.36Z"/><path class="cls-14" d="M1261.59,119.74h-59.26a.63.63,0,0,1-.42-.16c-1.85-1.74-.59-3.85,1.19-3.85H1260a1,1,0,0,0,.67-.26c3.37-3.1.73-7-2.56-6.44a.59.59,0,0,1-.5-.13c-2-1.76-.7-3.93,1.1-3.93,6.53,0,11.19,7.79,4.35,14.17A2.23,2.23,0,0,1,1261.59,119.74Z"/><path class="cls-11" d="M1084.86,291h-14.64a4.49,4.49,0,0,1-4.48-4.84l5.63-72.72h12.35l5.62,72.72A4.49,4.49,0,0,1,1084.86,291Z"/><path class="cls-3" d="M1089.36,286.16l-5.63-72.72H1074l5.63,72.72a4.49,4.49,0,0,1-4.48,4.84h9.78A4.49,4.49,0,0,0,1089.36,286.16Z"/><path class="cls-12" d="M1077.78,143.72a5.23,5.23,0,0,0-5.23,5.23V205.6h11.19l2.44-11.31a76,76,0,0,0-.23-33.18l-3.08-13.34a5.23,5.23,0,0,0-5.09-4.05Z"/><path class="cls-12" d="M1135.49,238.47a5.23,5.23,0,0,0-2.32-7L1082.58,206l-5,10,9,7.26a76.12,76.12,0,0,0,29.75,14.72l13.29,3.25a5.22,5.22,0,0,0,5.91-2.72Z"/><path class="cls-12" d="M1019.59,238.47a5.23,5.23,0,0,1,2.32-7l50.6-25.49,5,10-9,7.26a76,76,0,0,1-29.74,14.72l-13.3,3.25A5.23,5.23,0,0,1,1019.59,238.47Z"/><circle class="cls-13" cx="1077.28" cy="208.85" r="10.07"/><path class="cls-14" d="M1012.28,181.32H974.51a.72.72,0,0,1-.5-.2c-2-2-.64-4.5,1.35-4.5h35.22a1.12,1.12,0,0,0,.79-.32c3.74-3.62.81-8.12-2.86-7.53a.73.73,0,0,1-.6-.17c-2.19-2-.77-4.59,1.25-4.59,7.31,0,12.52,9.11,4.91,16.57A2.56,2.56,0,0,1,1012.28,181.32Z"/><path class="cls-14" d="M1043,197H973.55a.73.73,0,0,1-.49-.19c-2.16-2-.68-4.52,1.4-4.52h66.7a1.18,1.18,0,0,0,.79-.29c3.93-3.64.84-8.16-3-7.55a.75.75,0,0,1-.6-.15c-2.3-2.06-.81-4.61,1.3-4.61,7.64,0,13.1,9.13,5.09,16.6A2.59,2.59,0,0,1,1043,197Z"/><path class="cls-15" d="M970.34,102.38,953.72,87.73l16-15.29a2.26,2.26,0,0,0-.94-3.82l-21.34-6.16,7.89-20.64a2.27,2.27,0,0,0-.37-2.25,2.3,2.3,0,0,0-2.13-.8L930.93,42.3l-1.78-22a2.29,2.29,0,0,0-3.57-1.69L907.29,31.15,896.19,12a2.3,2.3,0,0,0-4,0L879.48,34,857.43,21.25a2.28,2.28,0,0,0-3.43,2l0,22.08-22.14-1.83a2.31,2.31,0,0,0-2.06,1,2.26,2.26,0,0,0-.19,2.27l9.48,20-20.79,7.79a2.31,2.31,0,0,0-1.45,1.76,2.26,2.26,0,0,0,.81,2.12l17.17,14-15.41,15.9a2.23,2.23,0,0,0-.55,2.2,2.28,2.28,0,0,0,1.64,1.58L842,117.34,835,138.28a2.27,2.27,0,0,0,.46,2.23,2.3,2.3,0,0,0,2.16.72l21.77-4.38L862,158.77a2.25,2.25,0,0,0,1.36,1.82,2.28,2.28,0,0,0,2.27-.27l17.78-13.24,11.85,18.07a2.29,2.29,0,0,0,1.93,1.06h.09A2.3,2.3,0,0,0,899.2,165l10.35-18.94,18.76,11.83a2.29,2.29,0,0,0,2.28.09,2.25,2.25,0,0,0,1.22-1.92l.92-22.06,22,2.68a2.28,2.28,0,0,0,2.1-.89,2.25,2.25,0,0,0,.28-2.25l-8.69-20.33,21.07-7a2.27,2.27,0,0,0,.8-3.86Z"/><ellipse class="cls-16" cx="893.12" cy="88.15" rx="47.04" ry="47.01"/><path class="cls-17" d="M893.12,41.14c-1.18,0-2.35,0-3.5.13a47,47,0,0,1,0,93.76c1.15.08,2.32.13,3.5.13a47,47,0,1,0,0-94Z"/><path class="cls-10" d="M1499.37,72.74a39.67,39.67,0,0,0-4.5.27,31.29,31.29,0,0,0-40.09-20.53,40.72,40.72,0,0,0-76.49,26.93,34.49,34.49,0,0,0,5.06,68.59h115.27c19.83,0,36.83-15.05,38.27-34.81A37.64,37.64,0,0,0,1499.37,72.74Zm31.27,40.12c-1.16,16-15.88,29-31.92,29H1383.35a28.2,28.2,0,0,1-.85-56.4,3.07,3.07,0,0,0,2.49-1.35,3.12,3.12,0,0,0,.38-2.82,34.46,34.46,0,0,1,64.77-23.53,3.14,3.14,0,0,0,4.25,1.76,24.83,24.83,0,0,1,10.48-2.32,25.14,25.14,0,0,1,24.59,20.12,3.13,3.13,0,0,0,3.69,2.45,31.37,31.37,0,0,1,37.49,33.06Z"/><path class="cls-10" d="M1530.64,112.86c-1.16,16-15.88,29-31.92,29H1383.35a28.2,28.2,0,0,1-.85-56.4,3.07,3.07,0,0,0,2.49-1.35,3.12,3.12,0,0,0,.38-2.82,34.46,34.46,0,0,1,64.77-23.53,3.14,3.14,0,0,0,4.25,1.76,24.83,24.83,0,0,1,10.48-2.32,25.14,25.14,0,0,1,24.59,20.12,3.13,3.13,0,0,0,3.69,2.45,31.37,31.37,0,0,1,37.49,33.06Z"/><polyline class="cls-18" points="0 307 0 653 1600 653 1600 307 1489.48 307"/></svg>